# Blender v3.0.0 OBJ File: ''
# www.blender.org
mtllib smooth_icosphere.mtl
g Icosphere
v 0.000000 -1.000000 0.000000
v 0.723607 -0.447220 0.525725
v -0.276388 -0.447220 0.850649
v -0.894426 -0.447216 0.000000
v -0.276388 -0.447220 -0.850649
v 0.723607 -0.447220 -0.525725
v 0.276388 0.447220 0.850649
v -0.723607 0.447220 0.525725
v -0.723607 0.447220 -0.525725
v 0.276388 0.447220 -0.850649
v 0.894426 0.447216 0.000000
v 0.000000 1.000000 0.000000
v -0.162456 -0.850654 0.499995
v 0.425323 -0.850654 0.309011
v 0.262869 -0.525738 0.809012
v 0.850648 -0.525736 0.000000
v 0.425323 -0.850654 -0.309011
v -0.525730 -0.850652 0.000000
v -0.688189 -0.525736 0.499997
v -0.162456 -0.850654 -0.499995
v -0.688189 -0.525736 -0.499997
v 0.262869 -0.525738 -0.809012
v 0.951058 0.000000 0.309013
v 0.951058 0.000000 -0.309013
v 0.000000 0.000000 1.000000
v 0.587786 0.000000 0.809017
v -0.951058 0.000000 0.309013
v -0.587786 0.000000 0.809017
v -0.587786 0.000000 -0.809017
v -0.951058 0.000000 -0.309013
v 0.587786 0.000000 -0.809017
v 0.000000 0.000000 -1.000000
v 0.688189 0.525736 0.499997
v -0.262869 0.525738 0.809012
v -0.850648 0.525736 0.000000
v -0.262869 0.525738 -0.809012
v 0.688189 0.525736 -0.499997
v 0.162456 0.850654 0.499995
v 0.525730 0.850652 0.000000
v -0.425323 0.850654 0.309011
v -0.425323 0.850654 -0.309011
v 0.162456 0.850654 -0.499995
vt 1.456454 2.071338
vt 0.318670 2.736736
vt 0.734097 1.353733
vt -2.023418 1.450114
vt -1.742178 2.737843
vt -2.929119 1.915367
vt 1.743456 1.188055
vt 2.462653 1.915385
vt 1.985819 3.278434
vt -2.774788 0.904205
vt 0.274830 0.444969
vt -0.709600 1.321457
vt -0.709595 -0.431539
vt 1.984904 0.444967
vt 1.203577 0.444969
vt 1.743471 -0.298123
vt 3.368371 1.450139
vt 2.617005 0.904227
vt 3.530982 0.444971
vt -3.935314 2.071336
vt -5.073100 2.736751
vt -4.657693 1.353720
vt -1.860815 0.444945
vt 0.734106 -0.463805
vt 2.617009 -0.014288
vt 4.679986 1.319673
vt -3.648328 1.188040
vt -2.023427 -0.560222
vt -2.774793 -0.014311
vt -2.929144 -1.025468
vt 1.456486 -1.181420
vt 0.318700 -1.846836
vt 1.985878 -2.388519
vt 3.368380 -0.560197
vt 2.462680 -1.025451
vt 3.649620 -1.847926
vt -5.116968 0.444946
vt -6.101397 -0.431543
vt -4.657701 -0.463818
vt -3.406894 0.444949
vt -4.188221 0.444947
vt -3.648342 -0.298138
vt -3.935342 -1.181422
vt -5.073126 -1.846821
vt 4.679986 -0.429743
vt -3.405978 -2.388519
vt -1.742206 -1.847952
vt -6.101393 1.321453
vt -0.711810 -0.429756
vt 3.649591 2.737869
vt -0.711810 1.319660
vt -3.405922 3.278436
vn 0.0000 -1.0000 0.0000
vn 0.4253 -0.8506 0.3090
vn -0.1625 -0.8506 0.5000
vn 0.7236 -0.4472 0.5257
vn 0.8506 -0.5257 0.0000
vn -0.5257 -0.8506 0.0000
vn -0.1625 -0.8506 -0.5000
vn 0.4253 -0.8506 -0.3090
vn 0.9510 0.0000 0.3090
vn -0.2764 -0.4472 0.8506
vn 0.2629 -0.5257 0.8090
vn 0.0000 0.0000 1.0000
vn -0.8944 -0.4472 0.0000
vn -0.6882 -0.5257 0.5000
vn -0.9510 0.0000 0.3090
vn -0.2764 -0.4472 -0.8506
vn -0.6882 -0.5257 -0.5000
vn -0.5878 0.0000 -0.8090
vn 0.7236 -0.4472 -0.5257
vn 0.2629 -0.5257 -0.8090
vn 0.5878 0.0000 -0.8090
vn 0.5878 0.0000 0.8090
vn -0.5878 0.0000 0.8090
vn -0.9510 0.0000 -0.3090
vn 0.0000 0.0000 -1.0000
vn 0.9510 0.0000 -0.3090
vn 0.2764 0.4472 0.8506
vn 0.6882 0.5257 0.5000
vn 0.1625 0.8506 0.5000
vn -0.7236 0.4472 0.5257
vn -0.2629 0.5257 0.8090
vn -0.4253 0.8506 0.3090
vn -0.7236 0.4472 -0.5257
vn -0.8506 0.5257 0.0000
vn -0.4253 0.8506 -0.3090
vn 0.2764 0.4472 -0.8506
vn -0.2629 0.5257 -0.8090
vn 0.1625 0.8506 -0.5000
vn 0.8944 0.4472 0.0000
vn 0.6882 0.5257 -0.5000
vn 0.5257 0.8506 0.0000
vn 0.0000 1.0000 0.0000
usemtl Texture
s 1
f 1/1/1 14/2/2 13/3/3
f 2/4/4 14/5/2 16/6/5
f 1/1/1 13/3/3 18/7/6
f 1/1/1 18/7/6 20/8/7
f 1/1/1 20/8/7 17/9/8
f 2/4/4 16/6/5 23/10/9
f 3/11/10 15/12/11 25/13/12
f 4/14/13 19/15/14 27/16/15
f 5/17/16 21/18/17 29/19/18
f 6/20/19 22/21/20 31/22/21
f 2/4/4 23/10/9 26/23/22
f 3/11/10 25/13/12 28/24/23
f 4/14/13 27/16/15 30/25/24
f 5/17/16 29/19/18 32/26/25
f 6/20/19 31/22/21 24/27/26
f 7/28/27 33/29/28 38/30/29
f 8/31/30 34/32/31 40/33/32
f 9/34/33 35/35/34 41/36/35
f 10/37/36 36/38/37 42/39/38
f 11/40/39 37/41/40 39/42/41
f 39/42/41 42/39/38 12/43/42
f 39/42/41 37/41/40 42/39/38
f 37/41/40 10/37/36 42/39/38
f 42/39/38 41/44/35 12/43/42
f 42/39/38 36/38/37 41/44/35
f 36/45/37 9/34/33 41/36/35
f 41/44/35 40/46/32 12/43/42
f 41/36/35 35/35/34 40/33/32
f 35/35/34 8/31/30 40/33/32
f 40/46/32 38/30/29 12/43/42
f 40/46/32 34/47/31 38/30/29
f 34/47/31 7/28/27 38/30/29
f 38/30/29 39/42/41 12/43/42
f 38/30/29 33/29/28 39/42/41
f 33/29/28 11/40/39 39/42/41
f 24/27/26 37/41/40 11/40/39
f 24/27/26 31/22/21 37/41/40
f 31/22/21 10/37/36 37/41/40
f 32/48/25 36/38/37 10/37/36
f 32/26/25 29/19/18 36/45/37
f 29/19/18 9/34/33 36/45/37
f 30/25/24 35/35/34 9/34/33
f 30/25/24 27/16/15 35/35/34
f 27/16/15 8/31/30 35/35/34
f 28/24/23 34/32/31 8/31/30
f 28/24/23 25/13/12 34/32/31
f 25/49/12 7/28/27 34/47/31
f 26/23/22 33/29/28 7/28/27
f 26/23/22 23/10/9 33/29/28
f 23/10/9 11/40/39 33/29/28
f 31/22/21 32/48/25 10/37/36
f 31/22/21 22/21/20 32/48/25
f 22/50/20 5/17/16 32/26/25
f 29/19/18 30/25/24 9/34/33
f 29/19/18 21/18/17 30/25/24
f 21/18/17 4/14/13 30/25/24
f 27/16/15 28/24/23 8/31/30
f 27/16/15 19/15/14 28/24/23
f 19/15/14 3/11/10 28/24/23
f 25/49/12 26/23/22 7/28/27
f 25/49/12 15/51/11 26/23/22
f 15/51/11 2/4/4 26/23/22
f 23/10/9 24/27/26 11/40/39
f 23/10/9 16/6/5 24/27/26
f 16/6/5 6/20/19 24/27/26
f 17/52/8 22/21/20 6/20/19
f 17/9/8 20/8/7 22/50/20
f 20/8/7 5/17/16 22/50/20
f 20/8/7 21/18/17 5/17/16
f 20/8/7 18/7/6 21/18/17
f 18/7/6 4/14/13 21/18/17
f 18/7/6 19/15/14 4/14/13
f 18/7/6 13/3/3 19/15/14
f 13/3/3 3/11/10 19/15/14
f 16/6/5 17/52/8 6/20/19
f 16/6/5 14/5/2 17/52/8
f 14/2/2 1/1/1 17/9/8
f 13/3/3 15/12/11 3/11/10
f 13/3/3 14/2/2 15/12/11
f 14/5/2 2/4/4 15/51/11
