# Blender v3.0.0 OBJ File: ''
# www.blender.org
mtllib multitex.mtl
g Cube_Cube.001
v -1.000000 -1.000000 1.000000
v -1.000000 1.000000 1.000000
v -1.000000 -1.000000 -1.000000
v -1.000000 1.000000 -1.000000
v 1.000000 -1.000000 1.000000
v 1.000000 1.000000 1.000000
v 1.000000 -1.000000 -1.000000
v 1.000000 1.000000 -1.000000
v -0.618335 0.859883 0.618335
v -0.618335 0.859883 -0.618335
v 0.618335 0.859883 0.618335
v 0.618335 0.859883 -0.618335
vt 0.999900 0.999900
vt 0.000100 0.000100
vt 0.999900 0.000100
vt 0.000100 0.999899
vt 0.000100 0.001638
vt 0.197606 0.798808
vt 0.000100 0.999900
vt 0.998257 0.000100
vt 0.200965 0.199134
vt 0.797393 0.800866
vt 0.998257 0.998362
vt 0.800751 0.201191
vt 0.994784 0.997069
vt 0.001137 0.003422
vt 0.994784 0.003422
vt 0.001137 0.003422
vt 0.994784 0.997069
vt 0.001137 0.997069
vt 0.001137 0.003422
vt 0.994784 0.997069
vt 0.001137 0.997069
vt 0.994784 0.997069
vt 0.001137 0.003422
vt 0.994784 0.003422
vt 0.007417 0.001558
vt 0.993074 0.987215
vt 0.007417 0.987215
vt 0.001137 0.997069
vt 0.994784 0.003422
vt 0.994784 0.003422
vt 0.001137 0.997069
vt 0.993074 0.001558
vn 0.0000 1.0000 0.0000
vn 0.3446 0.9387 0.0000
vn 0.0000 0.9387 -0.3446
vn 0.0000 0.9387 0.3446
vn -0.3446 0.9387 0.0000
vn -1.0000 0.0000 0.0000
vn 0.0000 0.0000 -1.0000
vn 1.0000 0.0000 0.0000
vn 0.0000 0.0000 1.0000
vn 0.0000 -1.0000 0.0000
usemtl Water
s off
f 10/1/1 11/2/1 12/3/1
f 10/1/1 9/4/1 11/2/1
usemtl Wood
f 2/5/2 10/6/2 4/7/2
f 6/8/3 9/9/3 2/5/3
f 4/7/4 12/10/4 8/11/4
f 8/11/5 11/12/5 6/8/5
f 2/5/2 9/9/2 10/6/2
f 6/8/3 11/12/3 9/9/3
f 4/7/4 10/6/4 12/10/4
f 8/11/5 12/10/5 11/12/5
usemtl Stone
f 2/13/6 3/14/6 1/15/6
f 4/16/7 7/17/7 3/18/7
f 8/19/8 5/20/8 7/21/8
f 6/22/9 1/23/9 5/24/9
f 7/25/10 1/26/10 3/27/10
f 2/13/6 4/28/6 3/14/6
f 4/16/7 8/29/7 7/17/7
f 8/19/8 6/30/8 5/20/8
f 6/22/9 2/31/9 1/23/9
f 7/25/10 5/32/10 1/26/10
